<?xml version="1.0" encoding="utf-8"?>
<!-- Generator: Adobe Illustrator 23.0.1, SVG Export Plug-In . SVG Version: 6.00 Build 0)  -->
<svg version="1.1" id="Layer_1" xmlns="http://www.w3.org/2000/svg" xmlns:xlink="http://www.w3.org/1999/xlink" x="0px" y="0px"
	 viewBox="0 0 500 500" style="enable-background:new 0 0 500 500;" xml:space="preserve">
<style type="text/css">
	.st0{fill:#808080;stroke:#808080;stroke-width:0.75;stroke-miterlimit:10;}
	.st1{fill:#808080;}
	.st2{stroke:#808080;stroke-width:0.75;stroke-miterlimit:10;}
	.st3{fill:#FFFFFF;stroke:#FFFFFF;stroke-width:0.75;stroke-miterlimit:10;}
	.st4{stroke:#000000;stroke-width:0.75;stroke-miterlimit:10;}
	.st5{fill:#FFFFFF;}
	.st6{fill:#FF7BAC;}
</style>
<path class="st0" d="M107.81,279.8c-2.63-29.63-5.78-74.91-3.56-106.83c0.43-6.19,1.57-19.09,7.36-20.87
	c3.98-1.22,8.76,3.25,16.85,10.99c4.82,4.61,9.51,9.1,14.74,16.48c14.14,19.93,22.44,47.1,24.64,54.6L107.81,279.8z"/>
<g>
	<path class="st1" d="M254.5,399.63c-83.33,0-151.13-44.47-151.13-99.13c0-54.66,67.79-99.13,151.13-99.13
		c13.91,0,27.68,1.24,40.94,3.69c64.88,11.94,110.18,51.18,110.18,95.43c0,0.54-0.01,1.08-0.02,1.62
		c-0.64,26.1-16.62,50.59-45,68.95C332.15,389.49,294.46,399.63,254.5,399.63z"/>
	<path class="st1" d="M254.5,201.75c13.88,0,27.63,1.24,40.87,3.69c31.05,5.71,59.04,18.15,78.8,35.02
		c20.33,17.36,31.08,38.12,31.08,60.04c0,0.54-0.01,1.08-0.02,1.61c-0.63,25.98-16.55,50.36-44.83,68.65
		c-28.4,18.37-66.01,28.49-105.9,28.49c-83.12,0-150.75-44.3-150.75-98.75S171.38,201.75,254.5,201.75 M254.5,201
		c-83.67,0-151.5,44.55-151.5,99.5S170.83,400,254.5,400c82.84,0,150.16-43.67,151.48-97.87c0.01-0.54,0.02-1.09,0.02-1.63
		c0-45.62-46.75-84.07-110.49-95.8C282.47,202.29,268.71,201,254.5,201L254.5,201z"/>
</g>
<path class="st2" d="M114.4,259.22c-1.71-19.88-3.75-50.26-2.32-71.67c0.28-4.15,1.01-12.81,4.75-14c2.57-0.82,5.66,2.18,10.88,7.38
	c3.11,3.1,6.14,6.11,9.53,11.06c9.14,13.38,14.51,31.6,15.93,36.64L114.4,259.22z"/>
<path class="st0" d="M400.53,279.8c2.63-29.63,5.78-74.91,3.56-106.83c-0.43-6.19-1.57-19.09-7.36-20.87
	c-3.98-1.22-8.76,3.25-16.85,10.99c-4.82,4.61-9.51,9.1-14.74,16.48c-14.14,19.93-22.44,47.1-24.64,54.6L400.53,279.8z"/>
<path class="st2" d="M390.94,259.22c1.71-19.88,3.75-50.26,2.32-71.67c-0.28-4.15-1.01-12.81-4.75-14
	c-2.57-0.82-5.66,2.18-10.88,7.38c-3.11,3.1-6.14,6.11-9.53,11.06c-9.14,13.38-14.51,31.6-15.93,36.64L390.94,259.22z"/>
<path class="st3" d="M321.43,321.73c0.99,22.35-26.4,41.7-61.15,43.24c-34.76,1.53-63.74-15.34-64.72-37.68
	c-0.08-1.86,0.03-3.7,0.33-5.52c14.66-8.06,35.36-13.57,58.47-14.59c27.13-1.2,51.48,4.05,66.97,13.15
	C321.38,320.8,321.41,321.26,321.43,321.73z"/>
<path class="st4" d="M271,308.45c0,10.8-6.72,19.55-15,19.55s-15-8.75-15-19.55c0-0.9,0.05-1.79,0.14-2.66
	c3.57-3.58,8.55-5.79,14.06-5.79c6.46,0,12.2,3.05,15.79,7.77C271,307.99,271,308.22,271,308.45z"/>
<path d="M308.86,316.5c-7.1,1.62-5.66-4.06-1.16-5.09c2.6-0.6,52.53-14.5,57.63-13.17c5.1,1.33,1.16,5.09,1.16,5.09L308.86,316.5z"
	/>
<path d="M311.66,332.22c-7.32-0.32-4.42-5.14,0.22-4.93c2.68,0.12,54.75,0.11,59.35,2.62c4.59,2.51-0.22,4.93-0.22,4.93
	L311.66,332.22z"/>
<path d="M308.2,345.24c-7.06-1.76-3.29-5.84,1.18-4.73c2.59,0.65,53.3,10.95,57.28,14.28c3.98,3.34-1.18,4.73-1.18,4.73
	L308.2,345.24z"/>
<path d="M201.63,323.5c7.1,1.62,5.66-4.06,1.16-5.09c-2.6-0.6-52.53-14.5-57.63-13.17c-5.1,1.33-1.16,5.09-1.16,5.09L201.63,323.5z"
	/>
<path d="M202.83,337.22c7.32-0.32,4.42-5.14-0.22-4.93c-2.68,0.12-54.75,0.11-59.35,2.62s0.22,4.93,0.22,4.93L202.83,337.22z"/>
<path d="M207.29,350.24c7.06-1.76,3.29-5.84-1.18-4.73c-2.59,0.65-53.3,10.95-57.28,14.28c-3.98,3.34,1.18,4.73,1.18,4.73
	L207.29,350.24z"/>
<g>
	<circle class="st5" cx="203.5" cy="258.5" r="19.5"/>
	<circle cx="204" cy="259" r="14"/>
	<circle class="st5" cx="209.5" cy="251.5" r="2.5"/>
</g>
<path class="st6" d="M267,343.83c-0.15,0.66-0.31,1.31-0.46,1.94c-2.76,10.93-6.63,18.14-10.54,18.23
	c-3.93,0.09-8.3-7.03-11.65-18.34c-0.19-0.63-0.38-1.27-0.55-1.92c5.09-1.1,9.15-5.86,10.24-11.93l0.63,0.04l1.05,0.07l0.66,0.04
	C257.55,338.12,261.76,342.89,267,343.83z"/>
<path d="M405,299.5c0,0.54-0.01,1.09-0.02,1.63c-40.07,14.42-106.52,9.65-123.48-24.63c-9.88-19.97-3.15-50.3,13.01-72.8
	C358.25,215.43,405,253.88,405,299.5z"/>
<g>
	<circle class="st5" cx="308.5" cy="260.5" r="19.5"/>
	<circle cx="309" cy="261" r="14"/>
	<circle class="st5" cx="314.5" cy="253.5" r="2.5"/>
</g>
<path d="M280.14,336c-2.2,4.77-6.41,8-11.24,8c-0.65,0-1.28-0.06-1.9-0.17c-5.24-0.94-9.45-5.71-10.62-11.87
	c-0.21-1.11-0.32-2.27-0.32-3.46V300h-1.66v28.5c0,1.15,0.09,2.27,0.27,3.35c0.13,0.82,0.31,1.61,0.53,2.38
	c1.72,5.98,6.05,10.49,11.34,11.54c0.77,0.15,1.56,0.23,2.36,0.23c5.78,0,10.77-4.09,13.1-10H280.14z"/>
<path d="M254.34,300v28.5c0,1.14-0.1,2.25-0.3,3.31c-1.09,6.07-5.15,10.83-10.24,11.93c-0.75,0.17-1.52,0.26-2.3,0.26
	c-4.83,0-9.04-3.23-11.24-8h-1.86c2.33,5.91,7.32,10,13.1,10c0.98,0,1.93-0.12,2.85-0.34c5.07-1.22,9.19-5.64,10.85-11.43
	c0.22-0.75,0.39-1.52,0.52-2.31c0.18-1.11,0.28-2.25,0.28-3.42V300H254.34z"/>
</svg>
